<svg width="52" height="50" viewBox="0 0 52 50" fill="none" xmlns="http://www.w3.org/2000/svg">
<g clip-path="url(#clip0_4_48)">
<path d="M26.0001 -3.05176e-05C21.8929 0.000392413 17.8443 0.936405 14.1858 2.73133C10.5274 4.52626 7.36319 7.12902 4.95252 10.3264C2.54184 13.5238 0.953245 17.2249 0.316865 21.1264C-0.319515 25.0279 0.0144263 29.0189 1.29133 32.7724C2.56824 36.5259 4.75179 39.9351 7.66309 42.7208C10.5744 45.5065 14.1306 47.5893 18.0405 48.7988C21.9503 50.0082 26.1025 50.3098 30.1569 49.6788C34.2113 49.0478 38.0526 47.5023 41.3661 45.1687L38.8008 41.8104C34.8714 44.577 30.0874 45.99 25.2204 45.8215C20.3534 45.653 15.6874 43.9127 11.9752 40.8815C8.26304 37.8503 5.72119 33.705 4.75979 29.1143C3.79839 24.5237 4.47351 19.7554 6.67623 15.579C8.87894 11.4025 12.4808 8.06137 16.9006 6.0947C21.3204 4.12802 26.3004 3.65049 31.0371 4.73914C35.7738 5.8278 39.9909 8.41915 43.0081 12.0951C46.0252 15.771 47.6664 20.3172 47.6668 25V29.1666C47.6668 30.2717 47.2102 31.3315 46.3976 32.1129C45.5849 32.8943 44.4827 33.3333 43.3334 33.3333C42.1842 33.3333 41.082 32.8943 40.2693 32.1129C39.4566 31.3315 39.0001 30.2717 39.0001 29.1666V25C39.0106 22.0589 37.946 19.2078 35.9924 16.9448C34.0387 14.6818 31.3201 13.1509 28.3117 12.6195C25.3033 12.0881 22.1964 12.59 19.5338 14.0376C16.8712 15.4851 14.8223 17.7863 13.745 20.5389C12.6678 23.2916 12.6307 26.3207 13.6402 29.097C14.6498 31.8732 16.6418 34.2201 19.2683 35.7276C21.8947 37.235 24.9885 37.8071 28.009 37.344C31.0296 36.8808 33.7849 35.4119 35.7934 33.1937C36.7173 34.8118 38.1756 36.0878 39.9379 36.8201C41.7002 37.5523 43.6659 37.6991 45.5247 37.2372C47.3834 36.7754 49.029 35.7312 50.2017 34.2697C51.3744 32.8081 52.0072 31.0126 52.0001 29.1666V25C51.9926 18.3718 49.251 12.0171 44.3766 7.33022C39.5023 2.64336 32.8934 0.0071384 26.0001 -3.05176e-05V-3.05176e-05ZM26.0001 33.3333C24.286 33.3333 22.6104 32.8446 21.1851 31.9289C19.7599 31.0132 18.6491 29.7117 17.9931 28.189C17.3372 26.6663 17.1655 24.9907 17.4999 23.3742C17.8344 21.7577 18.6598 20.2729 19.8718 19.1074C21.0839 17.942 22.6281 17.1483 24.3093 16.8268C25.9905 16.5052 27.7331 16.6702 29.3167 17.301C30.9003 17.9317 32.2539 18.9998 33.2062 20.3702C34.1585 21.7406 34.6668 23.3518 34.6668 25C34.6668 27.2101 33.7537 29.3297 32.1283 30.8925C30.503 32.4553 28.2986 33.3333 26.0001 33.3333Z" fill="#374957"/>
</g>
<defs>
<clipPath id="clip0_4_48">
<rect width="52" height="50" fill="white"/>
</clipPath>
</defs>
</svg>
