<svg width="51" height="50" viewBox="0 0 51 50" fill="none" xmlns="http://www.w3.org/2000/svg">
<path d="M25.4931 12.1726C18.2528 12.1726 12.4094 17.9015 12.4094 25C12.4094 32.0985 18.2528 37.8274 25.4931 37.8274C32.7335 37.8274 38.5769 32.0985 38.5769 25C38.5769 17.9015 32.7335 12.1726 25.4931 12.1726ZM25.4931 33.3369C20.8108 33.3369 16.9897 29.5906 16.9897 25C16.9897 20.4094 20.8108 16.6631 25.4931 16.6631C30.1755 16.6631 33.9966 20.4094 33.9966 25C33.9966 29.5906 30.1755 33.3369 25.4931 33.3369ZM39.1127 8.65771C37.4222 8.65771 36.0571 9.99611 36.0571 11.6535C36.0571 13.3109 37.4222 14.6493 39.1127 14.6493C40.8032 14.6493 42.1684 13.3171 42.1684 11.6535C42.1689 11.2599 42.0902 10.8702 41.9368 10.5065C41.7834 10.1428 41.5583 9.81233 41.2745 9.53405C40.9907 9.25577 40.6536 9.03512 40.2827 8.88474C39.9117 8.73437 39.5141 8.65721 39.1127 8.65771ZM50.9972 25C50.9972 21.5477 51.0291 18.1266 50.8313 14.6805C50.6335 10.6778 49.7022 7.12542 46.7167 4.19845C43.7249 1.26521 40.1079 0.358351 36.0252 0.16447C32.5039 -0.0294109 29.0145 0.00186028 25.4995 0.00186028C21.9782 0.00186028 18.4888 -0.0294109 14.9739 0.16447C10.8912 0.358351 7.2678 1.27147 4.28234 4.19845C1.29049 7.13168 0.365511 10.6778 0.167756 14.6805C-0.0299986 18.1329 0.00189745 21.5539 0.00189745 25C0.00189745 28.4461 -0.0299986 31.8734 0.167756 35.3195C0.365511 39.3222 1.29687 42.8746 4.28234 45.8016C7.27418 48.7348 10.8912 49.6417 14.9739 49.8355C18.4952 50.0294 21.9846 49.9981 25.4995 49.9981C29.0208 49.9981 32.5103 50.0294 36.0252 49.8355C40.1079 49.6417 43.7313 48.7285 46.7167 45.8016C49.7086 42.8683 50.6335 39.3222 50.8313 35.3195C51.0354 31.8734 50.9972 28.4523 50.9972 25ZM45.3835 39.7475C44.9178 40.8857 44.3564 41.7363 43.457 42.6119C42.5575 43.4937 41.6963 44.0441 40.5353 44.5007C37.1798 45.8078 29.2122 45.5139 25.4931 45.5139C21.7741 45.5139 13.8001 45.8078 10.4446 44.5069C9.28362 44.0504 8.41605 43.5 7.52296 42.6182C6.6235 41.7363 6.06213 40.892 5.59645 39.7537C4.26958 36.4577 4.5694 28.6462 4.5694 25C4.5694 21.3538 4.26958 13.536 5.59645 10.2463C6.06213 9.10801 6.6235 8.25744 7.52296 7.38185C8.42243 6.50626 9.28362 5.94963 10.4446 5.49307C13.8001 4.19219 21.7741 4.48614 25.4931 4.48614C29.2122 4.48614 37.1862 4.19219 40.5417 5.49307C41.7027 5.94963 42.5702 6.5 43.4633 7.38185C44.3628 8.26369 44.9242 9.10801 45.3898 10.2463C46.7167 13.536 46.4169 21.3538 46.4169 25C46.4169 28.6462 46.7167 36.4577 45.3835 39.7475Z" fill="#374657"/>
</svg>
