<svg width="54" height="51" viewBox="0 0 54 51" fill="none" xmlns="http://www.w3.org/2000/svg">
<g clip-path="url(#clip0_4_78)">
<path d="M20.25 25.5C27.7058 25.5 33.75 19.7916 33.75 12.75C33.75 5.70834 27.7058 -3.05176e-05 20.25 -3.05176e-05C12.7942 -3.05176e-05 6.75 5.70834 6.75 12.75C6.75 19.7916 12.7942 25.5 20.25 25.5Z" fill="#374957"/>
<path d="M29.3468 29.7493H11.1532C8.19632 29.7527 5.36152 30.8636 3.27066 32.8383C1.17979 34.813 0.00357261 37.4903 0 40.2829L0 50.9993H40.5V40.2829C40.4964 37.4903 39.3202 34.813 37.2293 32.8383C35.1385 30.8636 32.3037 29.7527 29.3468 29.7493Z" fill="#374957"/>
<path d="M49.4997 16.7344C48.2475 16.7933 47.071 17.3183 46.2277 18.1944C45.3843 19.0705 44.9428 20.2265 44.9997 21.4094C45.0566 20.2265 44.6151 19.0705 43.7717 18.1944C42.9284 17.3183 41.7519 16.7933 40.4997 16.7344C39.2475 16.7933 38.0711 17.3183 37.2277 18.1944C36.3844 19.0705 35.9428 20.2265 35.9997 21.4094C35.9997 26.2969 44.9997 32.317 44.9997 32.317C44.9997 32.317 53.9997 26.3054 53.9997 21.4094C54.0566 20.2265 53.615 19.0705 52.7717 18.1944C51.9283 17.3183 50.7519 16.7933 49.4997 16.7344Z" fill="#374957"/>
</g>
<defs>
<clipPath id="clip0_4_78">
<rect width="54" height="51" fill="white"/>
</clipPath>
</defs>
</svg>
