<svg width="38" height="44" viewBox="0 0 38 44" fill="none" xmlns="http://www.w3.org/2000/svg">
<g clip-path="url(#clip0_4_66)">
<path d="M37.9998 41.4128L28.1043 29.9548C33.6376 22.119 32.6372 10.5731 25.8699 4.16618C19.1026 -2.24072 9.13115 -1.08237 3.59792 6.7535C-1.9353 14.5894 -0.934908 26.1352 5.83235 32.5421C11.6613 38.0607 20.0409 38.0607 25.8698 32.5421L35.7654 44L37.9998 41.4128ZM15.8764 33.0215C8.89446 33.0215 3.23447 26.4678 3.23447 18.3834C3.23447 10.299 8.89446 3.74534 15.8764 3.74534C22.8584 3.74534 28.5184 10.299 28.5184 18.3834C28.5105 26.464 22.8551 33.0124 15.8764 33.0215ZM18.9974 11.0644C17.8469 11.0481 16.7313 11.5215 15.8622 12.3946C14.9745 11.5188 13.8425 11.0462 12.6764 11.0644C9.97338 11.1718 7.85407 13.7894 7.93571 16.9196C7.93571 21.9369 14.2077 27.2193 14.9235 27.8048L15.837 28.5532L16.7487 27.8048C17.4646 27.2193 23.7381 21.9368 23.7381 16.9196C23.8189 13.7897 21.7001 11.1727 18.9974 11.0644ZM15.837 24.0209C13.6246 21.9863 11.0962 18.8848 11.0962 16.9196C11.0173 15.8111 11.7206 14.834 12.6765 14.7239C13.5142 14.6594 14.2385 15.3935 14.2942 16.3635C14.2979 16.4268 14.2985 16.4903 14.2962 16.5536H17.4567C17.3824 15.6309 17.9682 14.8133 18.765 14.7273C18.8423 14.719 18.92 14.7178 18.9974 14.7239C19.9529 14.8349 20.6557 15.8113 20.5777 16.9196C20.5777 18.8848 18.043 21.9862 15.837 24.0209Z" fill="#374957"/>
</g>
<defs>
<clipPath id="clip0_4_66">
<rect width="38" height="44" fill="white"/>
</clipPath>
</defs>
</svg>
